<svg xmlns="http://www.w3.org/2000/svg" xmlns:xlink="http://www.w3.org/1999/xlink" width="500" zoomAndPan="magnify" viewBox="0 0 375 374.999991" height="500" preserveAspectRatio="xMidYMid meet" version="1.2"><defs><clipPath id="46feef5e21"><path d="M 67.5 0 L 307.5 0 C 325.402344 0 342.570312 7.113281 355.230469 19.769531 C 367.886719 32.429688 375 49.597656 375 67.5 L 375 307.5 C 375 325.402344 367.886719 342.570312 355.230469 355.230469 C 342.570312 367.886719 325.402344 375 307.5 375 L 67.5 375 C 49.597656 375 32.429688 367.886719 19.769531 355.230469 C 7.113281 342.570312 0 325.402344 0 307.5 L 0 67.5 C 0 49.597656 7.113281 32.429688 19.769531 19.769531 C 32.429688 7.113281 49.597656 0 67.5 0 Z M 67.5 0 "/></clipPath><clipPath id="372dd49692"><path d="M 67.558594 73 L 183 73 L 183 305 L 67.558594 305 Z M 67.558594 73 "/></clipPath></defs><g id="27e905ceb0"><g clip-rule="nonzero" clip-path="url(#46feef5e21)"><rect x="0" width="375" y="0" height="374.999991" style="fill:#2b2b2b;fill-opacity:1;stroke:none;"/></g><g style="fill:#c1ff72;fill-opacity:1;"><g transform="translate(191.232476, 338.600428)"><path style="stroke:none" d="M 6.96875 0.21875 C 6.09375 0.21875 5.320312 0.0390625 4.65625 -0.3125 C 3.988281 -0.664062 3.476562 -1.15625 3.125 -1.78125 C 2.769531 -2.40625 2.59375 -3.113281 2.59375 -3.90625 C 2.59375 -4.695312 2.769531 -5.40625 3.125 -6.03125 C 3.476562 -6.65625 3.988281 -7.148438 4.65625 -7.515625 C 5.320312 -7.878906 6.09375 -8.0625 6.96875 -8.0625 C 7.863281 -8.0625 8.644531 -7.882812 9.3125 -7.53125 C 9.976562 -7.175781 10.488281 -6.679688 10.84375 -6.046875 C 11.195312 -5.421875 11.375 -4.71875 11.375 -3.9375 C 11.375 -2.726562 10.972656 -1.734375 10.171875 -0.953125 C 9.367188 -0.171875 8.300781 0.21875 6.96875 0.21875 Z M 6.96875 0.21875 "/></g></g><g style="fill:#c1ff72;fill-opacity:1;"><g transform="translate(205.198782, 338.600428)"><path style="stroke:none" d="M 11.625 0 L 4.703125 0 L 4.703125 -36.140625 L 12.875 -36.140625 L 27.390625 -12.859375 L 28.03125 -12.953125 L 28.03125 -36.140625 L 34.90625 -36.140625 L 34.90625 0 L 27.59375 0 L 12.234375 -24.875 L 11.625 -24.765625 Z M 11.625 0 "/></g></g><g style="fill:#c1ff72;fill-opacity:1;"><g transform="translate(244.823534, 338.600428)"><path style="stroke:none" d="M 4.703125 0 L 4.703125 -36.140625 L 19.203125 -36.140625 C 22.941406 -36.140625 25.765625 -35.273438 27.671875 -33.546875 C 29.578125 -31.828125 30.53125 -29.453125 30.53125 -26.421875 C 30.53125 -24.234375 29.972656 -22.4375 28.859375 -21.03125 C 27.742188 -19.632812 26.082031 -18.566406 23.875 -17.828125 L 23.875 -17.296875 C 25.007812 -16.804688 25.925781 -16.070312 26.625 -15.09375 C 27.332031 -14.125 28 -12.6875 28.625 -10.78125 L 32.234375 0 L 24.890625 0 L 21.359375 -10.796875 C 20.992188 -11.890625 20.582031 -12.734375 20.125 -13.328125 C 19.675781 -13.929688 19.101562 -14.367188 18.40625 -14.640625 C 17.707031 -14.910156 16.796875 -15.046875 15.671875 -15.046875 L 11.84375 -15.046875 L 11.84375 0 Z M 18.34375 -20.71875 C 21.800781 -20.71875 23.53125 -22.332031 23.53125 -25.5625 C 23.53125 -28.84375 21.800781 -30.484375 18.34375 -30.484375 L 11.84375 -30.484375 L 11.84375 -20.71875 Z M 18.34375 -20.71875 "/></g></g><g style="fill:#c1ff72;fill-opacity:1;"><g transform="translate(278.614573, 338.600428)"><path style="stroke:none" d="M 11.84375 -36.140625 L 11.84375 -5.984375 L 28.078125 -5.984375 L 28.078125 0 L 4.703125 0 L 4.703125 -36.140625 Z M 11.84375 -36.140625 "/></g></g><g clip-rule="nonzero" clip-path="url(#372dd49692)"><path style=" stroke:none;fill-rule:nonzero;fill:#ffffff;fill-opacity:1;" d="M 160.195312 304.238281 C 152.128906 304.238281 142.882812 300.113281 137.457031 290.421875 C 128.277344 292.785156 117.933594 289.691406 110.3125 282.082031 C 103.804688 275.589844 100.871094 267.238281 102.058594 259.292969 C 98.507812 259.253906 94.886719 258.320312 91.359375 256.507812 C 86.457031 253.996094 82.117188 249.914062 79.132812 245.023438 C 76.167969 240.164062 74.707031 234.828125 74.910156 229.597656 C 75.082031 225.109375 76.496094 220.796875 79.042969 216.925781 C 75.640625 214.757812 72.886719 211.761719 70.957031 208.097656 C 68.601562 203.621094 67.558594 198.375 67.941406 192.925781 C 68.621094 183.15625 73.679688 174.90625 81.03125 170.910156 C 77.515625 165.363281 76.257812 156.945312 78.214844 149.304688 C 80.660156 139.738281 87.589844 133.125 97.515625 130.691406 C 94.667969 121.457031 96.988281 111.433594 104.015625 103.648438 C 111.367188 95.503906 121.980469 91.960938 132.042969 94.011719 C 132.875 88.113281 135.382812 83.125 139.414062 79.417969 C 143.847656 75.339844 149.859375 73.097656 156.347656 73.097656 C 162.964844 73.097656 169.476562 75.515625 174.210938 79.730469 C 178 83.105469 182.515625 89.226562 182.515625 99.210938 L 182.515625 283.792969 C 182.515625 283.972656 182.503906 284.15625 182.472656 284.335938 C 180.738281 295.203125 173.300781 302.757812 163.066406 304.058594 C 162.132812 304.175781 161.171875 304.238281 160.195312 304.238281 Z M 139.222656 282.730469 C 140.558594 282.730469 141.832031 283.511719 142.398438 284.8125 C 146.644531 294.554688 155.402344 298.046875 162.191406 297.183594 C 169.277344 296.285156 174.269531 291.179688 175.589844 283.507812 L 175.589844 99.210938 C 175.589844 86.613281 165.910156 80.023438 156.347656 80.023438 C 151.601562 80.023438 147.253906 81.621094 144.105469 84.515625 C 140.542969 87.789062 138.664062 92.632812 138.664062 98.515625 C 138.664062 99.65625 138.101562 100.71875 137.167969 101.367188 C 136.230469 102.015625 135.039062 102.160156 133.972656 101.757812 C 125.40625 98.519531 115.664062 101.082031 109.160156 108.289062 C 104.332031 113.636719 100.8125 122.621094 105.40625 131.804688 C 105.910156 132.8125 105.890625 134.007812 105.351562 135.003906 C 104.8125 135.996094 103.824219 136.664062 102.699219 136.792969 C 90.667969 138.167969 86.390625 145.289062 84.925781 151.019531 C 82.929688 158.824219 85.433594 167.007812 88.925781 169.476562 C 90.035156 170.257812 90.585938 171.617188 90.332031 172.949219 C 90.082031 174.28125 89.074219 175.347656 87.753906 175.667969 C 79.558594 177.683594 75.367188 186.03125 74.851562 193.410156 C 74.363281 200.382812 76.933594 209.070312 85.617188 212.542969 C 86.671875 212.964844 87.453125 213.878906 87.707031 214.984375 C 87.960938 216.089844 87.65625 217.253906 86.890625 218.09375 C 80.867188 224.710938 80.175781 233.429688 85.046875 241.417969 C 89.929688 249.421875 98.671875 253.832031 105.828125 251.898438 C 107.097656 251.558594 108.453125 251.964844 109.324219 252.949219 C 110.195312 253.933594 110.433594 255.328125 109.941406 256.546875 C 107.160156 263.402344 109.128906 271.117188 115.203125 277.179688 C 121.71875 283.679688 130.632812 285.960938 137.914062 282.988281 C 138.34375 282.816406 138.785156 282.730469 139.222656 282.730469 Z M 179.054688 283.792969 Z M 179.054688 283.792969 "/></g><path style=" stroke:none;fill-rule:nonzero;fill:#ffffff;fill-opacity:1;" d="M 204.691406 281.296875 L 210.3125 281.296875 C 212.136719 281.296875 213.613281 279.820312 213.613281 277.996094 L 213.613281 272.375 C 213.613281 270.554688 212.136719 269.074219 210.3125 269.074219 L 204.691406 269.074219 C 202.871094 269.074219 201.390625 270.554688 201.390625 272.375 L 201.390625 277.996094 C 201.390625 279.820312 202.871094 281.296875 204.691406 281.296875 Z M 204.691406 281.296875 "/><path style=" stroke:none;fill-rule:nonzero;fill:#ffffff;fill-opacity:1;" d="M 242.445312 250.652344 C 240.621094 250.652344 239.144531 249.175781 239.144531 247.351562 L 239.144531 228.242188 C 239.144531 227.421875 239.445312 226.675781 239.9375 226.097656 L 223.925781 207.894531 C 223.882812 207.898438 223.84375 207.902344 223.800781 207.902344 L 204.691406 207.902344 C 202.871094 207.902344 201.390625 206.425781 201.390625 204.601562 L 201.390625 185.492188 C 201.390625 183.667969 202.871094 182.191406 204.691406 182.191406 L 223.800781 182.191406 C 223.933594 182.191406 224.066406 182.203125 224.191406 182.214844 L 237.898438 167.03125 C 237.554688 166.511719 237.355469 165.890625 237.355469 165.222656 L 237.355469 146.113281 C 237.355469 146.058594 237.359375 146.007812 237.363281 145.953125 L 225.417969 128.894531 C 225.078125 129.042969 224.703125 129.125 224.3125 129.125 L 208.148438 129.125 C 206.605469 129.125 205.355469 127.875 205.355469 126.332031 L 205.355469 110.167969 C 205.355469 108.625 206.605469 107.375 208.148438 107.375 L 224.3125 107.375 C 224.460938 107.375 224.605469 107.390625 224.746094 107.414062 L 237.480469 93.832031 C 233.210938 68.390625 194 71.785156 194 99.210938 L 194 283.792969 C 197.457031 305.410156 224.941406 306.597656 233.832031 286.195312 C 251.179688 293.273438 272.632812 274.660156 266.839844 256.679688 L 261.539062 250.652344 Z M 207.503906 149.292969 C 207.503906 147.472656 208.980469 145.992188 210.804688 145.992188 L 221.457031 145.992188 C 223.277344 145.992188 224.757812 147.472656 224.757812 149.292969 L 224.757812 159.945312 C 224.757812 161.769531 223.277344 163.246094 221.457031 163.246094 L 210.804688 163.246094 C 208.980469 163.246094 207.503906 161.769531 207.503906 159.945312 Z M 243.464844 268.230469 C 243.464844 270.054688 241.988281 271.53125 240.167969 271.53125 L 234.542969 271.53125 C 232.722656 271.53125 231.246094 270.054688 231.246094 268.230469 L 231.246094 262.609375 C 231.246094 262.296875 231.289062 262 231.371094 261.710938 L 221.578125 250.644531 C 221.539062 250.648438 221.496094 250.652344 221.457031 250.652344 L 210.804688 250.652344 C 208.980469 250.652344 207.503906 249.175781 207.503906 247.351562 L 207.503906 236.699219 C 207.503906 234.875 208.980469 233.398438 210.804688 233.398438 L 221.457031 233.398438 C 223.277344 233.398438 224.757812 234.875 224.757812 236.699219 L 224.757812 247.351562 C 224.757812 247.804688 224.664062 248.238281 224.5 248.632812 L 233.988281 259.359375 C 234.171875 259.328125 234.355469 259.308594 234.542969 259.308594 L 240.167969 259.308594 C 241.988281 259.308594 243.464844 260.785156 243.464844 262.609375 Z M 243.464844 268.230469 "/><path style=" stroke:none;fill-rule:nonzero;fill:#ffffff;fill-opacity:1;" d="M 284.523438 212.320312 L 278.902344 212.320312 C 277.078125 212.320312 275.601562 210.84375 275.601562 209.019531 L 275.601562 203.398438 C 275.601562 201.574219 277.078125 200.097656 278.902344 200.097656 L 284.523438 200.097656 C 286.34375 200.097656 287.824219 201.574219 287.824219 203.398438 L 287.824219 209.019531 C 287.824219 209.359375 287.769531 209.683594 287.675781 209.992188 L 291.5 214.402344 C 307.429688 205.085938 303.800781 177.726562 287.152344 172.59375 L 270.304688 188.199219 C 270.3125 188.28125 270.316406 188.367188 270.316406 188.453125 L 270.316406 199.105469 C 270.316406 200.925781 268.839844 202.40625 267.019531 202.40625 L 256.367188 202.40625 C 254.542969 202.40625 253.066406 200.925781 253.066406 199.105469 L 253.066406 188.453125 C 253.066406 186.628906 254.542969 185.152344 256.367188 185.152344 L 267.019531 185.152344 C 267.429688 185.152344 267.820312 185.230469 268.179688 185.367188 L 291.300781 163.949219 C 294.371094 153.183594 290.863281 136.820312 272.769531 133.648438 L 262.761719 144.734375 C 262.953125 145.15625 263.066406 145.621094 263.066406 146.113281 L 263.066406 165.222656 C 263.066406 167.046875 261.589844 168.523438 259.765625 168.523438 L 241.292969 168.523438 L 226.929688 184.441406 C 227.039062 184.769531 227.101562 185.125 227.101562 185.492188 L 227.101562 204.601562 C 227.101562 205.054688 227.011719 205.488281 226.84375 205.882812 L 243.609375 224.941406 L 261.554688 224.941406 C 263.375 224.941406 264.855469 226.417969 264.855469 228.242188 L 264.855469 247.351562 C 264.855469 247.847656 264.742188 248.316406 264.542969 248.738281 L 270.773438 255.820312 C 285.84375 255.792969 300.839844 236.5 292.117188 220.488281 L 285.003906 212.28125 C 284.84375 212.304688 284.6875 212.320312 284.523438 212.320312 Z M 284.523438 212.320312 "/><path style=" stroke:none;fill-rule:nonzero;fill:#ffffff;fill-opacity:1;" d="M 227.101562 110.167969 L 227.101562 125.164062 L 239.589844 142.992188 C 239.921875 142.878906 240.28125 142.8125 240.65625 142.8125 L 259.753906 142.8125 L 272.515625 128.675781 C 277.40625 109.980469 257.339844 91.230469 237.941406 98.488281 L 227.097656 110.054688 C 227.097656 110.09375 227.101562 110.128906 227.101562 110.167969 Z M 245.257812 117.265625 C 245.257812 115.441406 246.734375 113.964844 248.554688 113.964844 L 254.179688 113.964844 C 256 113.964844 257.476562 115.441406 257.476562 117.265625 L 257.476562 122.886719 C 257.476562 124.710938 256 126.1875 254.179688 126.1875 L 248.554688 126.1875 C 246.734375 126.1875 245.257812 124.710938 245.257812 122.886719 Z M 245.257812 117.265625 "/><path style=" stroke:none;fill-rule:nonzero;fill:#ffffff;fill-opacity:1;" d="M 150.160156 116.964844 C 149.96875 116.964844 149.777344 116.949219 149.585938 116.917969 C 142.617188 115.761719 137.621094 112.816406 134.730469 108.167969 C 131.550781 103.054688 131.164062 96.078125 133.613281 87.988281 C 134.167969 86.15625 136.101562 85.121094 137.933594 85.675781 C 139.761719 86.230469 140.796875 88.164062 140.246094 89.996094 C 138.390625 96.121094 138.519531 101.140625 140.613281 104.511719 C 142.40625 107.390625 145.804688 109.265625 150.722656 110.082031 C 152.609375 110.398438 153.886719 112.179688 153.570312 114.066406 C 153.289062 115.761719 151.820312 116.964844 150.160156 116.964844 Z M 150.160156 116.964844 "/><path style=" stroke:none;fill-rule:nonzero;fill:#ffffff;fill-opacity:1;" d="M 96.730469 179.550781 C 92.125 179.550781 87.480469 177.515625 84.585938 174.855469 C 83.175781 173.5625 83.082031 171.371094 84.378906 169.964844 C 85.671875 168.554688 87.863281 168.460938 89.273438 169.753906 C 91.347656 171.660156 96.167969 173.585938 99.460938 172.082031 C 101.203125 171.289062 103.257812 172.058594 104.050781 173.800781 C 104.84375 175.539062 104.074219 177.59375 102.335938 178.386719 C 100.558594 179.195312 98.648438 179.550781 96.730469 179.550781 Z M 96.730469 179.550781 "/><path style=" stroke:none;fill-rule:nonzero;fill:#ffffff;fill-opacity:1;" d="M 139.207031 289.613281 C 137.769531 289.613281 136.425781 288.710938 135.929688 287.277344 C 135.304688 285.472656 136.265625 283.5 138.074219 282.871094 C 142.007812 281.511719 149.035156 276.957031 150.421875 268.515625 C 150.734375 266.625 152.515625 265.347656 154.402344 265.65625 C 156.292969 265.96875 157.570312 267.75 157.261719 269.636719 C 155.582031 279.839844 147.550781 286.925781 140.335938 289.421875 C 139.960938 289.550781 139.582031 289.613281 139.207031 289.613281 Z M 139.207031 289.613281 "/><path style=" stroke:none;fill-rule:nonzero;fill:#ffffff;fill-opacity:1;" d="M 125.191406 149.460938 C 123.75 149.460938 122.402344 148.550781 121.914062 147.113281 C 118.714844 137.738281 107.914062 136.265625 102.65625 136.796875 C 100.75 136.992188 99.050781 135.601562 98.859375 133.699219 C 98.667969 131.796875 100.054688 130.097656 101.960938 129.90625 C 106.941406 129.402344 112.328125 130.253906 116.746094 132.246094 C 122.476562 134.828125 126.53125 139.195312 128.46875 144.875 C 129.085938 146.6875 128.121094 148.65625 126.308594 149.273438 C 125.9375 149.398438 125.5625 149.460938 125.191406 149.460938 Z M 125.191406 149.460938 "/><path style=" stroke:none;fill-rule:nonzero;fill:#ffffff;fill-opacity:1;" d="M 90.433594 220.253906 C 87.234375 220.253906 84.535156 219.644531 82.917969 218.921875 C 81.171875 218.144531 80.386719 216.09375 81.167969 214.347656 C 81.945312 212.601562 83.996094 211.816406 85.742188 212.597656 C 87.484375 213.375 92.71875 213.964844 97.488281 211.890625 C 101.808594 210.011719 104.910156 206.410156 106.703125 201.179688 C 107.324219 199.371094 109.292969 198.40625 111.101562 199.027344 C 112.914062 199.648438 113.875 201.617188 113.253906 203.429688 C 110.839844 210.472656 106.339844 215.597656 100.25 218.246094 C 96.863281 219.71875 93.429688 220.253906 90.433594 220.253906 Z M 90.433594 220.253906 "/><path style=" stroke:none;fill-rule:nonzero;fill:#ffffff;fill-opacity:1;" d="M 106.730469 258.710938 C 106.3125 258.710938 105.890625 258.632812 105.476562 258.472656 C 103.695312 257.78125 102.808594 255.773438 103.5 253.992188 C 106.042969 247.445312 110.671875 242 116.53125 238.664062 C 122.472656 235.28125 128.992188 234.417969 134.890625 236.226562 C 136.71875 236.789062 137.75 238.726562 137.1875 240.554688 C 136.625 242.382812 134.6875 243.414062 132.859375 242.851562 C 124.1875 240.1875 113.914062 246.3125 109.960938 256.5 C 109.425781 257.871094 108.117188 258.710938 106.730469 258.710938 Z M 106.730469 258.710938 "/><path style=" stroke:none;fill-rule:nonzero;fill:#ffffff;fill-opacity:1;" d="M 134.910156 179.359375 C 129.558594 179.359375 124.082031 177.40625 119.742188 173.859375 C 115.144531 170.105469 112.390625 164.949219 112.175781 159.71875 C 112.097656 157.804688 113.582031 156.191406 115.496094 156.113281 C 117.410156 156.042969 119.019531 157.523438 119.097656 159.433594 C 119.230469 162.6875 121.0625 165.992188 124.125 168.492188 C 127.875 171.558594 132.757812 172.964844 137.179688 172.25 C 142.3125 171.425781 148.640625 167.527344 149.582031 159.265625 C 149.800781 157.367188 151.515625 156 153.417969 156.21875 C 155.320312 156.433594 156.683594 158.152344 156.464844 160.054688 C 155.882812 165.148438 153.71875 169.664062 150.207031 173.113281 C 147.015625 176.242188 142.78125 178.367188 138.28125 179.089844 C 137.171875 179.269531 136.042969 179.359375 134.910156 179.359375 Z M 134.910156 179.359375 "/><path style=" stroke:none;fill-rule:nonzero;fill:#ffffff;fill-opacity:1;" d="M 147.773438 256.074219 C 145.835938 256.074219 143.875 255.808594 141.921875 255.269531 C 140.074219 254.765625 138.988281 252.859375 139.496094 251.015625 C 140.003906 249.167969 141.90625 248.082031 143.753906 248.589844 C 151.507812 250.71875 157.285156 246.441406 159.875 242.128906 C 162.109375 238.417969 162.605469 233.527344 161.203125 229.050781 C 160.058594 225.402344 157.757812 222.570312 154.890625 221.28125 C 153.144531 220.5 152.367188 218.449219 153.152344 216.703125 C 153.9375 214.957031 155.984375 214.179688 157.730469 214.964844 C 162.40625 217.0625 166.078125 221.445312 167.8125 226.980469 C 169.796875 233.316406 169.050781 240.316406 165.8125 245.699219 C 163.515625 249.519531 160.050781 252.589844 156.046875 254.34375 C 153.421875 255.496094 150.625 256.074219 147.773438 256.074219 Z M 147.773438 256.074219 "/><path style=" stroke:none;fill-rule:nonzero;fill:#ffffff;fill-opacity:1;" d="M 179.054688 152.035156 C 179.03125 152.035156 179.011719 152.035156 178.988281 152.035156 C 177.074219 152 175.554688 150.417969 175.589844 148.503906 C 175.742188 140.433594 170.917969 136.105469 166.351562 134.746094 C 161.761719 133.382812 155.304688 134.40625 150.949219 141.367188 C 149.9375 142.992188 147.796875 143.484375 146.175781 142.46875 C 144.554688 141.453125 144.0625 139.316406 145.078125 137.695312 C 150.363281 129.242188 159.488281 125.480469 168.324219 128.105469 C 177.132812 130.722656 182.703125 138.78125 182.515625 148.636719 C 182.480469 150.527344 180.9375 152.035156 179.054688 152.035156 Z M 179.054688 152.035156 "/><path style=" stroke:none;fill-rule:nonzero;fill:#ffffff;fill-opacity:1;" d="M 179.054688 215.234375 C 177.375 215.234375 175.902344 214.011719 175.632812 212.300781 C 174.007812 201.871094 166.605469 197.363281 160.21875 196.621094 C 153.894531 195.890625 145.027344 198.691406 140.851562 208.992188 C 140.132812 210.765625 138.113281 211.617188 136.339844 210.898438 C 134.566406 210.179688 133.710938 208.160156 134.429688 206.386719 C 136.804688 200.539062 140.699219 195.894531 145.699219 192.964844 C 150.289062 190.273438 155.730469 189.128906 161.015625 189.742188 C 172.222656 191.039062 180.648438 199.476562 182.480469 211.234375 C 182.773438 213.125 181.480469 214.894531 179.589844 215.191406 C 179.410156 215.21875 179.230469 215.234375 179.054688 215.234375 Z M 179.054688 215.234375 "/></g></svg>